<?xml version="1.0" standalone="no"?>
<!DOCTYPE svg PUBLIC "-//W3C//DTD SVG 20010904//EN"
 "http://www.w3.org/TR/2001/REC-SVG-20010904/DTD/svg10.dtd">
<svg version="1.0" xmlns="http://www.w3.org/2000/svg"
 width="48.000000pt" height="48.000000pt" viewBox="0 0 48.000000 48.000000"
 preserveAspectRatio="xMidYMid meet">

<g transform="translate(0.000000,48.000000) scale(0.100000,-0.100000)"
fill="#000000" stroke="none">
<path d="M65 367 c-75 -75 -89 -287 -19 -287 8 0 37 20 63 45 l48 45 83 0 83
0 48 -45 c26 -25 55 -45 63 -45 70 0 56 212 -19 287 -36 36 -73 42 -115 18
-14 -8 -41 -14 -60 -14 -19 0 -46 6 -60 14 -42 24 -79 18 -115 -18z m286 -61
c-16 -19 -41 -10 -41 14 0 24 21 31 39 14 11 -10 12 -16 2 -28z m-201 5 c0
-10 9 -21 20 -24 11 -3 20 -10 20 -16 0 -6 -9 -11 -20 -11 -13 0 -20 -7 -20
-20 0 -11 -6 -20 -14 -20 -7 0 -16 9 -19 20 -3 11 -12 20 -21 20 -9 0 -16 7
-16 15 0 8 9 15 20 15 13 0 20 7 20 20 0 11 7 20 15 20 8 0 15 -8 15 -19z
m268 -29 c3 -16 -2 -22 -17 -22 -26 0 -36 17 -20 36 16 19 33 13 37 -14z m-60
-33 c3 -17 -23 -33 -39 -23 -5 3 -9 14 -9 25 0 15 6 20 22 17 13 -2 24 -10 26
-19z"/>
</g>
</svg>
